<svg width="1247.6px" height="153.2px" xmlns="http://www.w3.org/2000/svg" viewBox="-373.8062622070312 -1.6187499999999915 1247.6125244140624 153.23749999999998" style="background: rgba(0, 0, 0, 0)" preserveAspectRatio="xMidYMid"><defs><filter id="editing-golden" x="-100%" y="-100%" width="300%" height="300%"><feFlood flood-color="#806527" result="flood"></feFlood><feFlood flood-color="#fff694" result="flood-light"></feFlood><feComposite operator="in" in="flood" in2="SourceAlpha" result="flood-comp"></feComposite><feGaussianBlur in="flood-comp" stdDeviation="3" result="blur"></feGaussianBlur><feOffset in="blur" dy="3" result="offset-blur"></feOffset><feComponentTransfer in="offset-blur" result="comp-blur"><feFuncA type="linear" slope="0.7" intercept="-0.1"></feFuncA></feComponentTransfer><feSpecularLighting surfaceScale="200" specularConstant="20" specularExponent="1" lighting-color="#fff" in="blur" result="specular"><fePointLight x="-250" y="-250" z="3500"></fePointLight></feSpecularLighting><feComponentTransfer in="specular" result="inspecular"><feFuncA type="linear" slope="-1" intercept="1"></feFuncA></feComponentTransfer><feComposite operator="in" in="flood-light" in2="inspecular" result="inspecular2"></feComposite><feComposite operator="in" in="inspecular2" in2="SourceAlpha" result="light"></feComposite><feMerge><feMergeNode in="comp-blur"></feMergeNode><feMergeNode in="SourceGraphic"></feMergeNode><feMergeNode in="light"></feMergeNode></feMerge></filter></defs><g filter="url(#editing-golden)"><g transform="matrix(1.3,0,0,1.6,-420.5,200.7)"><path d="M 66.3 -70.2 L 66.3 -70.2 Q 72.8 -59.5 82.6 -46.7 L 82.6 -46.7 L 82.5 -45.7 L 82.5 -45.7 Q 78.9 -44.3 75.2 -43.9 L 75.2 -43.9 L 74.1 -44.6 L 74.1 -44.6 Q 66.1 -56.7 59.7 -68.1 L 59.7 -68.1 L 48.3 -68.1 L 48.3 -64.4 L 48.6 -44.8 L 40.7 -44.8 L 41.2 -63.7 L 40.7 -107.6 L 59.9 -107.7 L 59.9 -107.7 Q 69.1 -107.7 74.2 -103.1 L 74.2 -103.1 L 74.2 -103.1 Q 79.2 -98.4 79.2 -89.8 L 79.2 -89.8 L 79.2 -89.8 Q 79.2 -83.3 75.8 -78.2 L 75.8 -78.2 L 75.8 -78.2 Q 72.5 -73 66.3 -70.2 L 66.3 -70.2 Z M 48.6 -101 L 48.4 -74.8 L 60.1 -74.5 L 60.1 -74.5 Q 71.1 -77.6 71.1 -89.1 L 71.1 -89.1 L 71.1 -89.1 Q 71.1 -95.1 67.9 -98.1 L 67.9 -98.1 L 67.9 -98.1 Q 64.6 -101.1 58.2 -101.3 L 58.2 -101.3 L 48.6 -101 Z M 102.2 -93.6 L 101.9 -60.1 L 102.1 -44.8 L 94.8 -44.8 L 95.1 -59.5 L 94.8 -93.6 L 102.2 -93.6 Z M 137.5 -94.1 L 137.5 -94.1 Q 145.7 -94.1 151.6 -90.7 L 151.6 -90.7 L 150.3 -83.9 L 149.4 -83.6 L 149.4 -83.6 Q 146.9 -85.7 143.7 -86.9 L 143.7 -86.9 L 143.7 -86.9 Q 140.5 -88 136.7 -88 L 136.7 -88 L 136.7 -88 Q 129.5 -88 125.7 -83.4 L 125.7 -83.4 L 125.7 -83.4 Q 121.9 -78.7 121.9 -69.5 L 121.9 -69.5 L 121.9 -69.5 Q 121.9 -60.2 125.7 -55.3 L 125.7 -55.3 L 125.7 -55.3 Q 129.5 -50.4 136.7 -50.4 L 136.7 -50.4 L 136.7 -50.4 Q 140.3 -50.4 143.9 -51.6 L 143.9 -51.6 L 143.9 -51.6 Q 147.4 -52.9 150.3 -54.9 L 150.3 -54.9 L 151.2 -54.6 L 150.5 -47.9 L 150.5 -47.9 Q 143.8 -44.2 136.5 -44.2 L 136.5 -44.2 L 136.5 -44.2 Q 125.7 -44.2 119.9 -50.6 L 119.9 -50.6 L 119.9 -50.6 Q 114.1 -57.1 114.1 -68.9 L 114.1 -68.9 L 114.1 -68.9 Q 114.1 -81 120.2 -87.5 L 120.2 -87.5 L 120.2 -87.5 Q 126.4 -94.1 137.5 -94.1 L 137.5 -94.1 Z M 200.4 -93.7 L 179.6 -70.8 L 179.6 -70.8 Q 190 -58 201.6 -46.5 L 201.6 -46.5 L 201.4 -45.4 L 201.4 -45.4 Q 198.4 -44.4 194.4 -43.9 L 194.4 -43.9 L 193.2 -44.4 L 193.2 -44.4 Q 180.7 -58.5 171.5 -70.3 L 171.5 -70.3 L 171.5 -70.9 L 188.4 -89.3 L 191.6 -93.6 L 200.4 -93.7 Z M 171 -93.6 L 170.8 -60.1 L 171 -44.8 L 163.7 -44.8 L 164 -59.5 L 163.7 -93.6 L 171 -93.6 Z M 228.8 -61.9 L 228.7 -58.8 L 229 -44.8 L 221.6 -44.8 L 222 -58.8 L 221.9 -61.9 L 205.3 -93.6 L 213.4 -93.6 L 214.4 -90.8 L 225.3 -69.8 L 225.8 -69.8 L 237.8 -90.5 L 239.1 -93.6 L 246.9 -93.6 L 228.8 -61.9 Z M 260.8 -93.6 L 261.4 -92.9 L 259.1 -75 L 255 -74.4 L 254.3 -75.1 L 254.8 -93.1 L 260.8 -93.6 Z M 288.7 -94.1 L 288.7 -94.1 Q 294.7 -94.1 300.7 -91.8 L 300.7 -91.8 L 299.4 -84.5 L 298.3 -84.2 L 298.3 -84.2 Q 295.5 -86.4 293.1 -87.4 L 293.1 -87.4 L 293.1 -87.4 Q 290.6 -88.4 288 -88.4 L 288 -88.4 L 288 -88.4 Q 283.7 -88.4 281.3 -86.2 L 281.3 -86.2 L 281.3 -86.2 Q 278.8 -84 278.8 -81.2 L 278.8 -81.2 L 278.8 -81.2 Q 278.8 -78.3 281.3 -76.6 L 281.3 -76.6 L 281.3 -76.6 Q 283.7 -74.8 288.6 -72.6 L 288.6 -72.6 L 288.6 -72.6 Q 293.1 -70.7 295.7 -69.1 L 295.7 -69.1 L 295.7 -69.1 Q 298.3 -67.6 300.2 -65 L 300.2 -65 L 300.2 -65 Q 302.1 -62.4 302.1 -58.6 L 302.1 -58.6 L 302.1 -58.6 Q 302.1 -54.8 300 -51.5 L 300 -51.5 L 300 -51.5 Q 298 -48.2 294 -46.2 L 294 -46.2 L 294 -46.2 Q 290 -44.2 284.5 -44.2 L 284.5 -44.2 L 284.5 -44.2 Q 281.1 -44.2 277.3 -45.1 L 277.3 -45.1 L 277.3 -45.1 Q 273.6 -45.9 270.3 -47.6 L 270.3 -47.6 L 271.2 -55.3 L 272.2 -55.7 L 272.2 -55.7 Q 274.9 -52.9 278.6 -51.4 L 278.6 -51.4 L 278.6 -51.4 Q 282.3 -49.9 285.4 -49.9 L 285.4 -49.9 L 285.4 -49.9 Q 289.5 -49.9 292.2 -52.1 L 292.2 -52.1 L 292.2 -52.1 Q 294.8 -54.3 294.8 -57.5 L 294.8 -57.5 L 294.8 -57.5 Q 294.8 -60.4 292.4 -62.2 L 292.4 -62.2 L 292.4 -62.2 Q 290 -63.9 284.9 -66.3 L 284.9 -66.3 L 284.9 -66.3 Q 280.7 -68.1 278 -69.7 L 278 -69.7 L 278 -69.7 Q 275.3 -71.3 273.5 -73.9 L 273.5 -73.9 L 273.5 -73.9 Q 271.6 -76.5 271.6 -80.2 L 271.6 -80.2 L 271.6 -80.2 Q 271.6 -84.1 273.7 -87.2 L 273.7 -87.2 L 273.7 -87.2 Q 275.8 -90.4 279.7 -92.2 L 279.7 -92.2 L 279.7 -92.2 Q 283.6 -94.1 288.7 -94.1 L 288.7 -94.1 Z M 340.5 -107.6 L 340 -64.4 L 340.4 -44.8 L 332.5 -44.8 L 332.9 -63.7 L 332.5 -107.6 L 340.5 -107.6 Z M 405.4 -93.6 L 410.4 -44.8 L 403.8 -44.8 L 402.7 -59.7 L 400.1 -82.3 L 399.5 -82.3 L 385.5 -50.3 L 379.7 -50.3 L 366.5 -82.3 L 365.9 -82.3 L 363.3 -60.3 L 362 -44.8 L 355.7 -44.8 L 361.1 -93.6 L 369.6 -93.6 L 372 -86.3 L 382.7 -60 L 383.3 -60 L 394.5 -86.7 L 397 -93.6 L 405.4 -93.6 Z M 446.2 -93.6 L 463.4 -44.8 L 456 -44.8 L 454.9 -50.1 L 452.3 -57.4 L 440.6 -57.5 L 430.3 -57.4 L 427.6 -50.5 L 426.2 -44.8 L 419 -44.8 L 437.8 -93.6 L 446.2 -93.6 Z M 441.2 -63.2 L 450.3 -63.3 L 442.1 -86.5 L 441.5 -86.5 L 432.6 -63.3 L 441.2 -63.2 Z M 495.3 -94.1 L 495.3 -94.1 Q 503 -94.1 510.7 -90.8 L 510.7 -90.8 L 508.3 -83.7 L 507.4 -83.7 L 507.4 -83.7 Q 503.8 -86.1 500.7 -87 L 500.7 -87 L 500.7 -87 Q 497.7 -87.9 494.2 -87.9 L 494.2 -87.9 L 494.2 -87.9 Q 485.8 -87.9 481.7 -83.2 L 481.7 -83.2 L 481.7 -83.2 Q 477.5 -78.5 477.5 -68.5 L 477.5 -68.5 L 477.5 -68.5 Q 477.5 -58.9 481.3 -54.7 L 481.3 -54.7 L 481.3 -54.7 Q 485.1 -50.4 493.5 -50.4 L 493.5 -50.4 L 493.5 -50.4 Q 495.9 -50.4 498.2 -50.8 L 498.2 -50.8 L 498.2 -50.8 Q 500.4 -51.3 503.7 -52.5 L 503.7 -52.5 L 503.7 -57.4 L 503.6 -64.3 L 510.3 -64.8 L 510.3 -47.2 L 510.3 -47.2 Q 500.4 -44.2 493.2 -44.2 L 493.2 -44.2 L 493.2 -44.2 Q 481.6 -44.2 475.7 -50.4 L 475.7 -50.4 L 475.7 -50.4 Q 469.8 -56.7 469.8 -68.2 L 469.8 -68.2 L 469.8 -68.2 Q 469.8 -80.8 476.5 -87.4 L 476.5 -87.4 L 476.5 -87.4 Q 483.2 -94.1 495.3 -94.1 L 495.3 -94.1 Z M 542.5 -50.7 L 555.5 -51.1 L 556.1 -50.5 L 555.4 -44.8 L 525.7 -44.8 L 526 -59.5 L 525.7 -93.6 L 555.6 -93.6 L 556.1 -93 L 555.5 -87.3 L 543.2 -87.7 L 533 -87.6 L 532.9 -72.8 L 542.6 -72.7 L 551.1 -73 L 551.6 -72.4 L 551 -66.6 L 542 -66.9 L 532.9 -66.8 L 532.8 -60.1 L 532.9 -50.8 L 542.5 -50.7 Z M 582.7 -94.1 L 582.7 -94.1 Q 588.7 -94.1 594.7 -91.8 L 594.7 -91.8 L 593.4 -84.5 L 592.3 -84.2 L 592.3 -84.2 Q 589.5 -86.4 587.1 -87.4 L 587.1 -87.4 L 587.1 -87.4 Q 584.6 -88.4 582 -88.4 L 582 -88.4 L 582 -88.4 Q 577.7 -88.4 575.3 -86.2 L 575.3 -86.2 L 575.3 -86.2 Q 572.8 -84 572.8 -81.2 L 572.8 -81.2 L 572.8 -81.2 Q 572.8 -78.3 575.3 -76.6 L 575.3 -76.6 L 575.3 -76.6 Q 577.7 -74.8 582.6 -72.6 L 582.6 -72.6 L 582.6 -72.6 Q 587.1 -70.7 589.7 -69.1 L 589.7 -69.1 L 589.7 -69.1 Q 592.3 -67.6 594.2 -65 L 594.2 -65 L 594.2 -65 Q 596.1 -62.4 596.1 -58.6 L 596.1 -58.6 L 596.1 -58.6 Q 596.1 -54.8 594 -51.5 L 594 -51.5 L 594 -51.5 Q 592 -48.2 588 -46.2 L 588 -46.2 L 588 -46.2 Q 584 -44.2 578.5 -44.2 L 578.5 -44.2 L 578.5 -44.2 Q 575.1 -44.2 571.3 -45.1 L 571.3 -45.1 L 571.3 -45.1 Q 567.6 -45.9 564.3 -47.6 L 564.3 -47.6 L 565.2 -55.3 L 566.2 -55.7 L 566.2 -55.7 Q 568.9 -52.9 572.6 -51.4 L 572.6 -51.4 L 572.6 -51.4 Q 576.3 -49.9 579.4 -49.9 L 579.4 -49.9 L 579.4 -49.9 Q 583.5 -49.9 586.2 -52.1 L 586.2 -52.1 L 586.2 -52.1 Q 588.8 -54.3 588.8 -57.5 L 588.8 -57.5 L 588.8 -57.5 Q 588.8 -60.4 586.4 -62.2 L 586.4 -62.2 L 586.4 -62.2 Q 584 -63.9 578.9 -66.3 L 578.9 -66.3 L 578.9 -66.3 Q 574.7 -68.1 572 -69.7 L 572 -69.7 L 572 -69.7 Q 569.3 -71.3 567.5 -73.9 L 567.5 -73.9 L 567.5 -73.9 Q 565.6 -76.5 565.6 -80.2 L 565.6 -80.2 L 565.6 -80.2 Q 565.6 -84.1 567.7 -87.2 L 567.7 -87.2 L 567.7 -87.2 Q 569.8 -90.4 573.7 -92.2 L 573.7 -92.2 L 573.7 -92.2 Q 577.6 -94.1 582.7 -94.1 L 582.7 -94.1 Z M 651.6 -108.1 L 651.6 -108.1 Q 661.5 -108.1 670.1 -103.7 L 670.1 -103.7 L 668.5 -96.3 L 667.5 -96.1 L 667.5 -96.1 Q 662.8 -99 658.8 -100.3 L 658.8 -100.3 L 658.8 -100.3 Q 654.9 -101.6 650.5 -101.6 L 650.5 -101.6 L 650.5 -101.6 Q 629.2 -101.6 629.2 -75.3 L 629.2 -75.3 L 629.2 -75.3 Q 629.2 -62.7 634.1 -56.7 L 634.1 -56.7 L 634.1 -56.7 Q 639.1 -50.8 649.5 -50.8 L 649.5 -50.8 L 649.5 -50.8 Q 652.2 -50.8 655 -51.3 L 655 -51.3 L 655 -51.3 Q 657.8 -51.8 662.2 -53.1 L 662.2 -53.1 L 662.4 -60.5 L 662.3 -69.9 L 669.7 -70.5 L 669.5 -61.6 L 669.9 -47.9 L 669.9 -47.9 Q 663.5 -45.9 658.6 -45 L 658.6 -45 L 658.6 -45 Q 653.7 -44.1 649.1 -44.1 L 649.1 -44.1 L 649.1 -44.1 Q 635.1 -44.1 628.1 -52.1 L 628.1 -52.1 L 628.1 -52.1 Q 621.1 -60 621.1 -75 L 621.1 -75 L 621.1 -75 Q 621.1 -91.2 629 -99.6 L 629 -99.6 L 629 -99.6 Q 636.9 -108.1 651.6 -108.1 L 651.6 -108.1 Z M 705.9 -93.6 L 723.1 -44.8 L 715.7 -44.8 L 714.6 -50.1 L 712 -57.4 L 700.3 -57.5 L 690 -57.4 L 687.3 -50.5 L 685.9 -44.8 L 678.7 -44.8 L 697.5 -93.6 L 705.9 -93.6 Z M 700.9 -63.2 L 710 -63.3 L 701.8 -86.5 L 701.2 -86.5 L 692.3 -63.3 L 700.9 -63.2 Z M 761.1 -51 L 761.5 -50.3 L 761 -44.8 L 735 -44.8 L 735.3 -59.5 L 735 -93.6 L 742.4 -93.6 L 742.1 -60.1 L 742.3 -51 L 761.1 -51 Z M 798.1 -51 L 798.4 -50.3 L 798 -44.8 L 772 -44.8 L 772.3 -59.5 L 772 -93.6 L 779.3 -93.6 L 779 -60.1 L 779.2 -51 L 798.1 -51 Z M 825.9 -50.7 L 838.9 -51.1 L 839.5 -50.5 L 838.8 -44.8 L 809.1 -44.8 L 809.4 -59.5 L 809.1 -93.6 L 839 -93.6 L 839.5 -93 L 838.9 -87.3 L 826.6 -87.7 L 816.4 -87.6 L 816.3 -72.8 L 826 -72.7 L 834.5 -73 L 835 -72.4 L 834.4 -66.6 L 825.4 -66.9 L 816.3 -66.8 L 816.2 -60.1 L 816.3 -50.8 L 825.9 -50.7 Z M 874.2 -64.5 L 874.2 -64.5 Q 880.2 -55.4 887.4 -46.6 L 887.4 -46.6 L 887.3 -45.6 L 887.3 -45.6 Q 883.2 -44.3 880.6 -44.1 L 880.6 -44.1 L 879.3 -44.9 L 879.3 -44.9 Q 871.8 -56.2 868 -62.7 L 868 -62.7 L 858.8 -62.6 L 858.8 -60.1 L 859 -44.8 L 851.8 -44.8 L 852.1 -59.5 L 851.8 -93.6 L 868.4 -93.7 L 868.4 -93.7 Q 876.2 -93.7 880.3 -90.1 L 880.3 -90.1 L 880.3 -90.1 Q 884.5 -86.5 884.5 -79.6 L 884.5 -79.6 L 884.5 -79.6 Q 884.5 -74.6 881.8 -70.7 L 881.8 -70.7 L 881.8 -70.7 Q 879.1 -66.8 874.2 -64.5 L 874.2 -64.5 Z M 859 -87.7 L 858.9 -68.6 L 868.1 -68.3 L 868.1 -68.3 Q 876.8 -70.8 876.8 -79 L 876.8 -79 L 876.8 -79 Q 876.8 -83.3 874.3 -85.5 L 874.3 -85.5 L 874.3 -85.5 Q 871.7 -87.6 866.6 -87.8 L 866.6 -87.8 L 859 -87.7 Z M 914.6 -61.9 L 914.5 -58.8 L 914.8 -44.8 L 907.4 -44.8 L 907.8 -58.8 L 907.7 -61.9 L 891.2 -93.6 L 899.2 -93.6 L 900.2 -90.8 L 911.1 -69.8 L 911.6 -69.8 L 923.6 -90.5 L 924.9 -93.6 L 932.7 -93.6 L 914.6 -61.9 Z" fill="#f7c61d"></path></g></g><style>text {
  font-size: 64px;
  font-family: Arial Black;
  dominant-baseline: central;
  text-anchor: middle;
}</style></svg>