<svg width="741.225048828125px" height="142.39999999999998px" xmlns="http://www.w3.org/2000/svg" viewBox="-120.61252441406248 3.8000000000000114 741.225048828125 142.39999999999998" style="background: rgba(0, 0, 0, 0);" preserveAspectRatio="xMidYMid"><defs><filter id="editing-golden" x="-100%" y="-100%" width="300%" height="300%"><feFlood flood-color="#806527" result="flood"></feFlood><feFlood flood-color="#fff694" result="flood-light"></feFlood><feComposite operator="in" in="flood" in2="SourceAlpha" result="flood-comp"></feComposite><feGaussianBlur in="flood-comp" stdDeviation="3" result="blur"></feGaussianBlur><feOffset in="blur" dy="3" result="offset-blur"></feOffset><feComponentTransfer in="offset-blur" result="comp-blur"><feFuncA type="linear" slope="0.7" intercept="-0.1"></feFuncA></feComponentTransfer><feSpecularLighting surfaceScale="200" specularConstant="20" specularExponent="1" lighting-color="#fff" in="blur" result="specular"><fePointLight x="-250" y="-250" z="3500"></fePointLight></feSpecularLighting><feComponentTransfer in="specular" result="inspecular"><feFuncA type="linear" slope="-1" intercept="1"></feFuncA></feComponentTransfer><feComposite operator="in" in="flood-light" in2="inspecular" result="inspecular2"></feComposite><feComposite operator="in" in="inspecular2" in2="SourceAlpha" result="light"></feComposite><feMerge><feMergeNode in="comp-blur"></feMergeNode><feMergeNode in="SourceGraphic"></feMergeNode><feMergeNode in="light"></feMergeNode></feMerge></filter></defs><g filter="url(#editing-golden)"><g transform="translate(-11.78936767578125, 111.50500106811523)"><path d="M66.46-1.30L66.46-1.30L66.46-1.30Q66.46-2.02 66.35-3.06L66.35-3.06L66.35-3.06Q66.24-4.10 66.24-4.61L66.24-4.61L66.24-4.61Q66.24-5.04 66.35-5.26L66.35-5.26L66.35-5.26Q66.46-5.47 66.67-5.47L66.67-5.47L66.67-5.47Q67.03-5.47 67.39-4.97L67.39-4.97L67.39-4.97Q67.75-4.46 67.75-3.89L67.75-3.89L67.75-3.89Q67.75-3.60 67.79-3.31L67.79-3.31L67.79-3.31Q67.82-3.02 67.82-2.77L67.82-2.77L67.82-2.77Q67.82-2.52 67.82-2.23L67.82-2.23L67.82-2.23Q67.82-1.94 67.82-1.73L67.82-1.73L67.82-1.73Q67.82 3.60 65.92 6.05L65.92 6.05L65.92 6.05Q64.01 8.50 61.63 8.50L61.63 8.50L61.63 8.50Q53.71 8.50 35.71-13.75L35.71-13.75L35.71-13.75Q33.41-8.57 31.03-4.28L31.03-4.28L31.03-4.28Q28.66 0 25.88 3.67L25.88 3.67L25.88 3.67Q23.11 7.34 20.05 9.43L20.05 9.43L20.05 9.43Q16.99 11.52 14.04 11.52L14.04 11.52L14.04 11.52Q8.42 11.52 3.31 4.25L3.31 4.25L3.31 4.25Q0.50 0.29 0.50-5.90L0.50-5.90L0.50-5.90Q0.50-7.27 0.76-8.32L0.76-8.32L0.76-8.32Q1.01-9.36 1.44-9.36L1.44-9.36L1.44-9.36Q2.02-9.36 2.16-7.34L2.16-7.34L2.16-7.34Q2.16-6.34 2.59-4.54L2.59-4.54L2.59-4.54Q3.02-2.74 4.03-0.40L4.03-0.40L4.03-0.40Q5.04 1.94 6.48 4.00L6.48 4.00L6.48 4.00Q7.92 6.05 10.26 7.45L10.26 7.45L10.26 7.45Q12.60 8.86 15.26 8.86L15.26 8.86L15.26 8.86Q15.77 8.86 16.20 8.78L16.20 8.78L16.20 8.78Q24.55 7.99 33.70-16.27L33.70-16.27L32.47-17.78L32.47-17.78Q32.26-18.07 32.26-18.79L32.26-18.79L32.26-18.79Q32.26-19.58 32.51-20.30L32.51-20.30L32.51-20.30Q32.76-21.02 33.12-21.02L33.12-21.02L33.12-21.02Q33.41-21.02 33.62-20.74L33.62-20.74L34.85-19.30L34.85-19.30Q36.86-24.91 39.35-33.01L39.35-33.01L39.35-33.01Q41.83-41.11 42.05-41.69L42.05-41.69L42.05-41.69Q42.62-43.20 44.21-43.20L44.21-43.20L44.21-43.20Q45.50-43.20 45.50-42.05L45.50-42.05L45.50-42.05Q45.50-41.90 45.47-41.80L45.47-41.80L45.47-41.80Q45.43-41.69 45.43-41.54L45.43-41.54L45.43-41.54Q42.34-30.10 37.73-18.50L37.73-18.50L37.73-18.50Q42.48-18.79 46.48-19.48L46.48-19.48L46.48-19.48Q50.47-20.16 53.42-21.13L53.42-21.13L53.42-21.13Q56.38-22.10 58.57-23.29L58.57-23.29L58.57-23.29Q60.77-24.48 62.14-25.85L62.14-25.85L62.14-25.85Q63.50-27.22 64.15-28.62L64.15-28.62L64.15-28.62Q64.80-30.02 64.80-31.54L64.80-31.54L64.80-31.54Q64.80-36.86 57.78-41.11L57.78-41.11L57.78-41.11Q50.76-45.36 40.68-45.36L40.68-45.36L40.68-45.36Q34.27-45.36 28.55-43.88L28.55-43.88L28.55-43.88Q22.82-42.41 19.26-39.71L19.26-39.71L19.26-39.71Q15.70-37.01 15.70-33.77L15.70-33.77L15.70-33.77Q15.70-29.88 21.02-25.85L21.02-25.85L21.02-25.85Q22.32-24.84 22.32-24.55L22.32-24.55L22.32-24.55Q22.32-24.34 21.96-24.34L21.96-24.34L21.96-24.34Q21.46-24.34 20.48-24.70L20.48-24.70L20.48-24.70Q19.51-25.06 19.08-25.42L19.08-25.42L19.08-25.42Q12.31-30.38 12.31-34.99L12.31-34.99L12.31-34.99Q12.31-37.73 14.72-40.07L14.72-40.07L14.72-40.07Q17.14-42.41 21.17-43.96L21.17-43.96L21.17-43.96Q25.20-45.50 30.38-46.37L30.38-46.37L30.38-46.37Q35.57-47.23 41.18-47.23L41.18-47.23L41.18-47.23Q47.81-47.23 53.10-46.04L53.10-46.04L53.10-46.04Q58.39-44.86 61.67-42.84L61.67-42.84L61.67-42.84Q64.94-40.82 66.64-38.34L66.64-38.34L66.64-38.34Q68.33-35.86 68.33-33.05L68.33-33.05L68.33-33.05Q68.33-30.02 66.31-27.14L66.31-27.14L66.31-27.14Q64.30-24.26 60.52-21.92L60.52-21.92L60.52-21.92Q56.74-19.58 50.69-18.18L50.69-18.18L50.69-18.18Q44.64-16.78 37.30-16.78L37.30-16.78L37.30-16.78Q37.15-16.78 37.01-16.78L37.01-16.78L37.01-16.70L37.01-16.70Q55.22 5.47 63.00 6.19L63.00 6.19L63.22 6.19L63.22 6.19Q64.94 6.19 65.70 3.96L65.70 3.96L65.70 3.96Q66.46 1.73 66.46-1.30ZM86.83-39.60L86.83-39.60L86.83-39.60Q86.83-38.66 85.46-37.22L85.46-37.22L85.46-37.22Q84.10-35.78 83.74-34.99L83.74-34.99L83.74-34.99Q82.80-32.62 81.72-32.33L81.72-32.33L81.72-32.33Q80.28-32.33 80.28-34.70L80.28-34.70L80.28-34.70Q80.28-36.22 82.51-38.02L82.51-38.02L82.51-38.02Q84.74-39.82 86.40-39.82L86.40-39.82L86.40-39.82Q86.76-39.82 86.83-39.60ZM82.73-27.29L82.73-27.29L82.73-27.29Q82.58-27.07 81.76-25.49L81.76-25.49L81.76-25.49Q80.93-23.90 80.35-22.75L80.35-22.75L80.35-22.75Q79.78-21.60 78.77-19.37L78.77-19.37L78.77-19.37Q77.76-17.14 76.97-15.12L76.97-15.12L76.97-15.12Q76.18-13.10 75.31-10.30L75.31-10.30L75.31-10.30Q74.45-7.49 73.80-4.68L73.80-4.68L73.80-4.68Q73.73-4.46 73.73-4.10L73.73-4.10L73.73-4.10Q73.73-3.24 74.45-3.24L74.45-3.24L74.45-3.24Q74.88-3.24 76.79-4.32L76.79-4.32L76.79-4.32Q78.70-5.40 79.27-5.40L79.27-5.40L79.27-5.40Q79.78-5.40 79.85-5.11L79.85-5.11L79.85-5.11Q79.85-4.25 76.18-1.91L76.18-1.91L76.18-1.91Q72.50 0.43 71.14 0.43L71.14 0.43L71.14 0.43Q69.77 0.43 69.77-0.86L69.77-0.86L69.77-0.86Q69.77-1.51 70.06-2.38L70.06-2.38L70.06-2.38Q70.85-4.61 71.68-6.98L71.68-6.98L71.68-6.98Q72.50-9.36 72.94-10.66L72.94-10.66L72.94-10.66Q73.37-11.95 73.84-13.32L73.84-13.32L73.84-13.32Q74.30-14.69 74.52-15.37L74.52-15.37L74.52-15.37Q74.74-16.06 74.92-16.74L74.92-16.74L74.92-16.74Q75.10-17.42 75.17-17.78L75.17-17.78L75.17-17.78Q75.24-18.14 75.24-18.50L75.24-18.50L75.24-18.50Q75.24-18.79 75.13-19.04L75.13-19.04L75.13-19.04Q75.02-19.30 75.02-19.44L75.02-19.44L75.02-19.44Q75.02-19.73 75.24-20.38L75.24-20.38L75.24-20.38Q76.82-24.91 78.05-26.42L78.05-26.42L78.05-26.42Q79.27-27.94 81.65-27.94L81.65-27.94L81.65-27.94Q82.58-27.94 82.73-27.29ZM99.58-23.62L99.58-23.62L99.58-23.62Q99.58-22.10 98.89-20.92L98.89-20.92L98.89-20.92Q98.21-19.73 97.42-19.73L97.42-19.73L97.42-19.73Q96.55-19.73 96.55-21.02L96.55-21.02L96.55-21.02Q96.55-21.46 96.84-22.61L96.84-22.61L96.84-22.61Q97.13-23.76 97.13-24.26L97.13-24.26L97.13-24.26Q97.13-25.42 95.90-25.42L95.90-25.42L95.90-25.42Q95.04-25.42 93.20-24.23L93.20-24.23L93.20-24.23Q91.37-23.04 90.43-22.10L90.43-22.10L90.43-22.10Q89.06-20.66 86.47-14.22L86.47-14.22L86.47-14.22Q83.88-7.78 83.88-4.25L83.88-4.25L83.88-4.25Q83.88-1.58 85.97-1.58L85.97-1.58L85.97-1.58Q88.63-1.58 91.30-3.64L91.30-3.64L91.30-3.64Q93.96-5.69 95.62-7.81L95.62-7.81L95.62-7.81Q97.27-9.94 97.34-9.94L97.34-9.94L97.34-9.94Q97.70-9.79 97.70-9.43L97.70-9.43L97.70-9.43Q97.70-8.35 95.98-6.01L95.98-6.01L95.98-6.01Q94.25-3.67 91.19-1.55L91.19-1.55L91.19-1.55Q88.13 0.58 85.25 0.58L85.25 0.58L85.25 0.58Q80.86 0.58 80.86-4.54L80.86-4.54L80.86-4.54Q80.86-9.50 84.10-16.49L84.10-16.49L84.10-16.49Q87.34-23.47 89.71-24.55L89.71-24.55L89.71-24.55Q90.79-24.98 92.05-25.63L92.05-25.63L92.05-25.63Q93.31-26.28 94.21-26.64L94.21-26.64L94.21-26.64Q95.11-27.00 96.19-27.00L96.19-27.00L96.19-27.00Q99.58-27.00 99.58-23.62ZM120.67-25.42L120.67-25.42L120.67-25.42Q116.21-22.82 112.21-18.47L112.21-18.47L112.21-18.47Q108.22-14.11 108.22-12.74L108.22-12.74L108.22-12.74Q108.22-10.15 110.45-6.26L110.45-6.26L110.45-6.26Q112.68-2.38 114.41-0.94L114.41-0.94L114.41-0.94Q115.78 0.22 115.78 0.94L115.78 0.94L115.78 0.94Q115.78 1.37 115.13 1.37L115.13 1.37L115.13 1.37Q113.69 1.37 111.82-0.61L111.82-0.61L111.82-0.61Q109.94-2.59 108.61-4.64L108.61-4.64L108.61-4.64Q107.28-6.70 105.84-9.36L105.84-9.36L104.33-12.02L104.33-12.02Q101.23-3.46 101.09-1.22L101.09-1.22L101.09-1.22Q101.09-0.72 99.76 0.40L99.76 0.40L99.76 0.40Q98.42 1.51 97.63 1.51L97.63 1.51L97.63 1.51Q97.13 1.51 97.13 0.86L97.13 0.86L97.13 0.86Q97.13 0.58 97.49-0.50L97.49-0.50L97.49-0.50Q99.50-5.54 101.38-11.12L101.38-11.12L101.38-11.12Q103.25-16.70 105.55-24.01L105.55-24.01L105.55-24.01Q107.86-31.32 109.01-34.78L109.01-34.78L109.01-34.78Q109.30-35.64 109.30-36.07L109.30-36.07L109.30-36.07Q109.30-36.36 109.19-36.61L109.19-36.61L109.19-36.61Q109.08-36.86 109.08-37.01L109.08-37.01L109.08-37.01Q109.08-37.30 109.30-37.94L109.30-37.94L109.30-37.94Q110.95-42.55 112.10-44.03L112.10-44.03L112.10-44.03Q113.26-45.50 115.63-45.50L115.63-45.50L115.63-45.50Q116.64-45.50 116.71-44.86L116.71-44.86L116.71-44.86Q112.39-36.14 109.69-29.23L109.69-29.23L109.69-29.23Q106.99-22.32 104.90-13.97L104.90-13.97L108.22-16.92L108.22-16.92Q111.53-19.87 115.13-23.00L115.13-23.00L115.13-23.00Q118.73-26.14 119.23-26.57L119.23-26.57L119.23-26.57Q121.18-28.01 122.18-28.01L122.18-28.01L122.18-28.01Q122.62-28.01 122.62-27.72L122.62-27.72L122.62-27.72Q122.62-26.93 120.67-25.42ZM142.78-27.94L142.78-27.94L142.78-27.94Q142.99-27.58 142.99-27.14L142.99-27.14L142.99-27.14Q142.99-24.26 136.69-15.55L136.69-15.55L136.69-15.55Q130.39-6.84 126.58-2.38L126.58-2.38L126.58-2.52L126.58-2.52Q126.50-2.52 126.40-1.94L126.40-1.94L126.40-1.94Q126.29-1.37 126.07-0.50L126.07-0.50L126.07-0.50Q125.86 0.36 125.64 1.19L125.64 1.19L125.64 1.19Q125.42 2.02 125.10 2.63L125.10 2.63L125.10 2.63Q124.78 3.24 124.49 3.24L124.49 3.24L124.49 3.24Q124.20 3.24 123.73 3.06L123.73 3.06L123.73 3.06Q123.26 2.88 123.19 2.88L123.19 2.88L123.19 2.88Q113.47 15.91 113.47 19.58L113.47 19.58L113.47 19.58Q113.47 20.23 113.76 20.92L113.76 20.92L113.76 20.92Q114.05 21.60 114.05 21.82L114.05 21.82L114.05 21.82Q114.05 22.61 113.18 23.18L113.18 23.18L113.18 23.18Q112.32 23.76 111.46 23.76L111.46 23.76L111.46 23.76Q110.30 23.76 110.30 22.39L110.30 22.39L110.30 22.39Q110.30 19.80 113.40 14.51L113.40 14.51L113.40 14.51Q116.50 9.22 119.77 4.68L119.77 4.68L119.77 4.68Q123.05 0.14 123.12-0.14L123.12-0.14L123.12-0.14Q123.91-2.52 123.91-6.62L123.91-6.62L123.91-6.62Q123.91-12.53 122.80-16.99L122.80-16.99L122.80-16.99Q121.68-21.46 119.74-21.46L119.74-21.46L119.74-21.46Q119.52-21.46 119.16-21.46L119.16-21.46L118.73-21.38L118.73-21.38Q118.44-21.38 118.44-21.74L118.44-21.74L118.44-21.74Q118.44-22.32 120.02-23.47L120.02-23.47L120.02-23.47Q120.24-23.62 121.25-25.06L121.25-25.06L121.25-25.06Q122.26-26.50 122.76-26.50L122.76-26.50L122.76-26.50Q124.27-26.50 125.46-21.85L125.46-21.85L125.46-21.85Q126.65-17.21 126.65-11.52L126.65-11.52L126.65-11.52Q126.65-10.94 126.61-9.79L126.61-9.79L126.61-9.79Q126.58-8.64 126.58-8.06L126.58-8.06L126.58-8.06Q126.58-6.91 127.15-6.91L127.15-6.91L127.15-6.91Q128.81-6.91 133.81-14.54L133.81-14.54L133.81-14.54Q138.82-22.18 138.82-24.26L138.82-24.26L138.82-24.26Q138.82-24.70 138.46-24.70L138.46-24.70L138.46-24.70Q138.31-24.70 137.95-24.55L137.95-24.55L137.95-24.55Q137.59-24.41 137.38-24.41L137.38-24.41L137.38-24.41Q137.02-24.41 136.80-24.77L136.80-24.77L136.80-24.77Q136.80-25.70 138.89-26.86L138.89-26.86L138.89-26.86Q140.98-28.01 142.27-28.01L142.27-28.01L142.27-28.01Q142.63-28.01 142.78-27.94ZM159.84-41.18L159.84-41.18L159.84-41.18Q160.63-41.18 161.06-40.21L161.06-40.21L161.06-40.21Q161.50-39.24 161.50-38.30L161.50-38.30L161.50-38.30Q161.50-37.08 160.70-36.36L160.70-36.36L160.70-36.36Q160.27-35.06 159.66-33.80L159.66-33.80L159.66-33.80Q159.05-32.54 158.40-31.50L158.40-31.50L158.40-31.50Q157.75-30.46 157.00-29.48L157.00-29.48L157.00-29.48Q156.24-28.51 155.48-27.76L155.48-27.76L155.48-27.76Q154.73-27.00 154.01-26.32L154.01-26.32L154.01-26.32Q153.29-25.63 152.60-25.16L152.60-25.16L152.60-25.16Q151.92-24.70 151.34-24.37L151.34-24.37L151.34-24.37Q150.77-24.05 150.30-23.87L150.30-23.87L150.30-23.87Q149.83-23.69 149.62-23.69L149.62-23.69L149.62-23.69Q149.40-23.69 149.29-23.80L149.29-23.80L149.29-23.80Q149.18-23.90 149.26-24.05L149.26-24.05L149.26-24.12L149.26-24.12Q149.69-24.55 150.16-25.02L150.16-25.02L150.16-25.02Q150.62-25.49 151.13-26.10L151.13-26.10L151.13-26.10Q151.63-26.71 152.17-27.36L152.17-27.36L152.17-27.36Q152.71-28.01 153.25-28.69L153.25-28.69L153.25-28.69Q153.79-29.38 154.26-30.06L154.26-30.06L154.26-30.06Q154.73-30.74 155.16-31.43L155.16-31.43L155.16-31.43Q155.59-32.11 155.88-32.69L155.88-32.69L155.88-32.69Q156.17-33.26 156.35-33.80L156.35-33.80L156.35-33.80Q156.53-34.34 156.53-34.78L156.53-34.78L156.53-34.78Q156.53-35.28 156.17-35.64L156.17-35.64L156.17-35.64Q156.02-35.78 155.88-36.00L155.88-36.00L155.88-36.00Q155.74-36.22 155.66-36.40L155.66-36.40L155.66-36.40Q155.59-36.58 155.56-36.79L155.56-36.79L155.56-36.79Q155.52-37.01 155.52-37.22L155.52-37.22L155.52-37.22Q155.52-38.38 156.74-39.60L156.74-39.60L156.82-39.60L156.82-39.60Q158.62-41.18 159.84-41.18ZM175.10-24.70L175.10-24.70L175.10-24.70Q174.96-23.26 173.23-20.59L173.23-20.59L173.23-20.59Q171.50-17.93 170.57-17.93L170.57-17.93L170.57-17.93Q170.28-17.93 170.28-18.36L170.28-18.36L170.28-18.36Q170.28-19.01 171.07-20.99L171.07-20.99L171.07-20.99Q171.86-22.97 171.86-23.54L171.86-23.54L171.86-23.54Q171.86-24.62 170.57-24.62L170.57-24.62L170.57-24.62Q170.35-24.62 168.19-24.26L168.19-24.26L168.19-24.26Q166.39-23.83 163.48-21.96L163.48-21.96L163.48-21.96Q160.56-20.09 160.56-17.86L160.56-17.86L160.56-17.86Q160.56-17.06 160.92-16.42L160.92-16.42L160.92-16.42Q161.86-14.54 164.20-13.25L164.20-13.25L164.20-13.25Q166.54-11.95 168.23-10.80L168.23-10.80L168.23-10.80Q169.92-9.65 169.92-7.78L169.92-7.78L169.92-7.78Q169.92-4.61 165.06-1.69L165.06-1.69L165.06-1.69Q160.20 1.22 156.74 1.22L156.74 1.22L156.74 1.22Q156.17 1.22 155.81 0.76L155.81 0.76L155.81 0.76Q155.45 0.29 155.45-0.22L155.45-0.22L155.45-0.22Q155.45-1.08 156.24-1.08L156.24-1.08L156.24-1.08Q158.62-1.08 162.90-2.56L162.90-2.56L162.90-2.56Q167.18-4.03 167.18-5.76L167.18-5.76L167.18-5.76Q167.18-6.77 165.56-8.14L165.56-8.14L165.56-8.14Q163.94-9.50 162.04-10.66L162.04-10.66L162.04-10.66Q160.13-11.81 158.51-13.43L158.51-13.43L158.51-13.43Q156.89-15.05 156.89-16.56L156.89-16.56L156.89-16.56Q156.89-17.78 157.75-18.86L157.75-18.86L157.75-18.86Q158.40-19.66 159.12-20.41L159.12-20.41L159.12-20.41Q159.84-21.17 160.49-21.74L160.49-21.74L160.49-21.74Q161.14-22.32 161.96-22.90L161.96-22.90L161.96-22.90Q162.79-23.47 163.44-23.90L163.44-23.90L163.44-23.90Q164.09-24.34 164.95-24.77L164.95-24.77L164.95-24.77Q165.82-25.20 166.32-25.45L166.32-25.45L166.32-25.45Q166.82-25.70 167.65-26.06L167.65-26.06L167.65-26.06Q168.48-26.42 168.80-26.53L168.80-26.53L168.80-26.53Q169.13-26.64 169.85-26.93L169.85-26.93L169.85-26.93Q170.57-27.22 170.64-27.22L170.64-27.22L170.64-27.22Q171.86-27.58 172.51-27.58L172.51-27.58L172.51-27.58Q175.10-27.58 175.10-24.70ZM216.94-42.26L216.94-42.26L216.94-42.26Q216.72-42.26 212.94-42.98L212.94-42.98L212.94-42.98Q209.16-43.70 207.43-43.70L207.43-43.70L207.43-43.70Q205.42-43.70 203.90-43.20L203.90-43.20L203.90-43.20Q202.39-42.70 201.53-41.72L201.53-41.72L201.53-41.72Q200.66-40.75 200.66-39.46L200.66-39.46L200.66-39.46Q200.66-36.72 204.05-33.34L204.05-33.34L204.05-33.34Q204.26-33.12 204.44-32.87L204.44-32.87L204.44-32.87Q204.62-32.62 204.73-32.36L204.73-32.36L204.73-32.36Q204.84-32.11 204.84-31.97L204.84-31.97L204.84-31.97Q204.84-31.82 204.80-31.79L204.80-31.79L204.80-31.79Q204.77-31.75 204.62-31.75L204.62-31.75L204.62-31.75Q204.12-31.75 202.68-33.05L202.68-33.05L202.68-33.05Q198.79-36.65 198.79-39.96L198.79-39.96L198.79-39.96Q198.79-42.77 201.46-44.50L201.46-44.50L201.46-44.50Q204.12-46.22 208.58-46.22L208.58-46.22L208.58-46.22Q209.52-46.22 210.56-46.15L210.56-46.15L210.56-46.15Q211.61-46.08 212.69-45.86L212.69-45.86L212.69-45.86Q213.05-45.79 215.96-45.22L215.96-45.22L215.96-45.22Q218.88-44.64 221.69-44.21L221.69-44.21L221.69-44.21Q224.50-43.78 226.37-43.78L226.37-43.78L226.37-43.78Q228.53-43.78 229.03-44.42L229.03-44.42L229.03-44.42Q229.25-44.64 229.46-44.71L229.46-44.71L229.46-44.71Q229.90-44.71 229.90-44.14L229.90-44.14L229.90-44.14Q229.90-43.92 229.79-43.63L229.79-43.63L229.79-43.63Q229.68-43.34 229.39-42.95L229.39-42.95L229.39-42.95Q229.10-42.55 228.67-42.19L228.67-42.19L228.67-42.19Q228.10-41.69 227.23-41.44L227.23-41.44L227.23-41.44Q226.37-41.18 225.14-41.18L225.14-41.18L225.14-41.18Q223.70-41.18 219.74-41.83L219.74-41.83L219.74-41.83Q219.60-41.47 218.02-35.82L218.02-35.82L218.02-35.82Q216.43-30.17 215.28-26.78L215.28-26.78L215.28-26.78Q214.13-23.40 212.11-18.00L212.11-18.00L212.11-18.00Q210.10-12.60 207.65-8.35L207.65-8.35L207.65-8.35Q205.20-4.10 202.46-1.08L202.46-1.08L202.46-1.08Q209.38 2.02 215.06 2.02L215.06 2.02L215.06 2.02Q219.38 2.02 219.38 0L219.38 0L219.38 0Q219.38-0.58 219.10-1.22L219.10-1.22L219.10-1.22Q218.81-1.87 218.52-2.41L218.52-2.41L218.52-2.41Q218.23-2.95 218.23-3.10L218.23-3.10L218.23-3.10Q218.23-3.38 218.38-3.64L218.38-3.64L218.38-3.64Q218.52-3.89 218.74-3.82L218.74-3.82L218.74-3.82Q219.31-3.60 219.74-2.52L219.74-2.52L219.74-2.52Q220.18-1.44 220.18-0.14L220.18-0.14L220.18-0.14Q220.18 1.94 218.88 3.38L218.88 3.38L218.88 3.38Q217.58 4.82 214.70 4.82L214.70 4.82L214.70 4.82Q211.97 4.82 207.76 3.67L207.76 3.67L207.76 3.67Q203.54 2.52 200.66 1.22L200.66 1.22L200.66 1.22Q197.35 4.18 192.82 4.18L192.82 4.18L192.82 4.18Q190.66 4.18 189.22 3.35L189.22 3.35L189.22 3.35Q187.78 2.52 187.78 1.01L187.78 1.01L187.78 1.01Q187.78-0.72 189.47-2.30L189.47-2.30L189.47-2.30Q191.16-3.89 193.54-3.89L193.54-3.89L193.54-3.89Q195.98-3.89 200.45-1.94L200.45-1.94L200.45-1.94Q203.47-5.62 206.35-11.84L206.35-11.84L206.35-11.84Q209.23-18.07 210.89-22.97L210.89-22.97L210.89-22.97Q212.54-27.86 214.52-34.38L214.52-34.38L214.52-34.38Q216.50-40.90 216.94-42.26ZM198.79 0.36L198.79 0.36L198.79 0.36Q197.71-0.14 195.41-0.86L195.41-0.86L195.41-0.86Q193.10-1.58 191.38-1.58L191.38-1.58L191.38-1.58Q188.93-1.58 188.93 0.14L188.93 0.14L188.93 0.14Q188.93 1.51 190.01 2.34L190.01 2.34L190.01 2.34Q191.09 3.17 192.74 3.17L192.74 3.17L192.74 3.17Q195.98 3.10 198.79 0.36ZM260.06-26.14L260.06-26.14L260.06-26.14Q251.35-10.73 249.55-1.30L249.55-1.30L249.55-1.30Q249.34-0.58 249.34 0.14L249.34 0.14L249.34 0.14Q249.34 1.15 249.98 1.15L249.98 1.15L249.98 1.15Q250.27 1.15 251.46 0.47L251.46 0.47L251.46 0.47Q252.65-0.22 252.86-0.22L252.86-0.22L252.86-0.22Q253.22-0.22 253.22 0.22L253.22 0.22L253.22 0.22Q253.22 1.15 251.64 2.16L251.64 2.16L251.64 2.16Q250.06 3.17 248.47 3.17L248.47 3.17L248.47 3.17Q247.39 3.17 246.89 2.48L246.89 2.48L246.89 2.48Q246.38 1.80 246.38 0.14L246.38 0.14L246.38 0.14Q246.38-1.51 247.10-4.03L247.10-4.03L247.10-4.03Q247.82-6.55 248.54-8.32L248.54-8.32L248.54-8.32Q249.26-10.08 250.60-13.03L250.60-13.03L250.60-13.03Q251.93-15.98 252.14-16.56L252.14-16.56L252.14-16.56Q254.38-21.82 254.38-22.82L254.38-22.82L254.38-22.82Q254.38-23.33 254.02-23.33L254.02-23.33L254.02-23.33Q253.80-23.33 253.22-22.97L253.22-22.97L253.22-22.97Q249.48-20.45 245.30-14.83L245.30-14.83L245.30-14.83Q241.13-9.22 239.11-1.73L239.11-1.73L239.11-1.73Q238.97-1.15 237.60-0.40L237.60-0.40L237.60-0.40Q236.23 0.36 235.30 0.36L235.30 0.36L235.30 0.36Q234.43 0.36 234.43-0.29L234.43-0.29L234.43-0.43L234.50-0.58L234.50-0.58Q236.52-10.08 241.27-22.68L241.27-22.68L241.27-22.68Q241.63-23.62 241.63-23.98L241.63-23.98L241.63-23.98Q241.63-24.34 241.42-24.34L241.42-24.34L241.42-24.34Q241.06-24.34 240.34-23.54L240.34-23.54L240.34-23.54Q235.73-18.22 232.20-12.96L232.20-12.96L232.20-12.96Q228.67-7.70 227.27-4.97L227.27-4.97L227.27-4.97Q225.86-2.23 224.50-0.50L224.50-0.50L224.50-0.50Q223.13 1.22 221.62 1.22L221.62 1.22L221.62 1.22Q221.04 1.22 221.04 0.65L221.04 0.65L221.04 0.65Q221.04 0.14 221.36-0.65L221.36-0.65L221.36-0.65Q221.69-1.44 222.08-2.23L222.08-2.23L222.08-2.23Q222.48-3.02 222.55-3.17L222.55-3.17L222.55-3.17Q223.70-5.98 227.30-17.21L227.30-17.21L227.30-17.21Q227.59-18.07 227.59-18.50L227.59-18.50L227.59-18.50Q227.59-18.79 227.48-19.04L227.48-19.04L227.48-19.04Q227.38-19.30 227.38-19.44L227.38-19.44L227.38-19.44Q227.38-19.73 227.59-20.38L227.59-20.38L227.59-20.38Q229.18-24.91 230.40-26.42L230.40-26.42L230.40-26.42Q231.62-27.94 233.93-27.94L233.93-27.94L233.93-27.94Q234.86-27.94 235.01-27.29L235.01-27.29L235.01-27.29Q229.10-15.19 227.95-10.01L227.95-10.01L227.95-10.01Q239.98-29.16 246.17-29.16L246.17-29.16L246.17-29.16Q247.61-29.16 247.61-28.22L247.61-28.22L247.61-28.22Q247.61-27.58 247.10-26.78L247.10-26.78L247.10-26.78Q240.84-16.20 239.18-8.14L239.18-8.14L239.18-8.14Q242.71-15.12 245.92-18.97L245.92-18.97L245.92-18.97Q249.12-22.82 255.46-27.43L255.46-27.43L255.46-27.43Q256.82-28.51 259.06-28.51L259.06-28.51L259.06-28.51Q260.50-28.51 260.50-27.50L260.50-27.50L260.50-27.50Q260.50-27.00 260.06-26.14ZM280.22-5.76L280.22-5.76L280.22-5.76Q280.15-5.69 279.58-5.15L279.58-5.15L279.58-5.15Q279.00-4.61 278.64-4.32L278.64-4.32L278.64-4.32Q278.28-4.03 277.60-3.42L277.60-3.42L277.60-3.42Q276.91-2.81 276.41-2.45L276.41-2.45L276.41-2.45Q275.90-2.09 275.18-1.58L275.18-1.58L275.18-1.58Q274.46-1.08 273.92-0.83L273.92-0.83L273.92-0.83Q273.38-0.58 272.81-0.36L272.81-0.36L272.81-0.36Q272.23-0.14 271.73-0.14L271.73-0.14L271.73-0.14Q270.22-0.14 269.93-1.94L269.93-1.94L269.93-1.94Q269.93-4.97 272.30-13.10L272.30-13.10L272.30-13.10Q262.66 0.22 258.48 0.22L258.48 0.22L258.48 0.22Q256.75 0.22 256.75-2.38L256.75-2.38L256.75-2.38Q256.75-5.69 258.73-11.34L258.73-11.34L258.73-11.34Q260.71-16.99 263.59-21.56L263.59-21.56L263.59-21.56Q266.47-26.14 268.63-26.14L268.63-26.14L268.85-26.14L269.64-26.71L269.64-26.71Q270.29-27.43 271.66-27.43L271.66-27.43L271.66-27.43Q272.74-27.43 274.68-26.86L274.68-26.86L274.68-26.86Q276.62-26.28 276.84-26.28L276.84-26.28L276.84-26.28Q277.13-26.28 277.60-26.86L277.60-26.86L277.60-26.86Q278.06-27.43 278.71-27.43L278.71-27.43L278.71-27.43Q280.51-27.43 280.51-25.85L280.51-25.85L280.51-25.85Q280.51-25.20 280.26-24.41L280.26-24.41L280.26-24.41Q280.01-23.62 279.54-22.57L279.54-22.57L279.54-22.57Q279.07-21.53 279.00-21.31L279.00-21.31L279.00-21.31Q278.93-21.17 278.32-20.88L278.32-20.88L278.32-20.88Q277.70-20.59 277.63-20.38L277.63-20.38L277.63-20.38Q276.05-15.91 274.82-10.84L274.82-10.84L274.82-10.84Q273.60-5.76 273.60-4.61L273.60-4.61L273.60-4.61Q273.60-2.81 274.61-2.81L274.61-2.81L274.61-2.81Q275.62-2.81 277.09-4.03L277.09-4.03L277.09-4.03Q278.57-5.26 279.65-6.48L279.65-6.48L279.65-6.48Q280.73-7.70 280.80-7.70L280.80-7.70L280.80-7.70Q280.94-7.70 280.94-7.42L280.94-7.42L280.94-7.42Q280.94-6.34 280.22-5.76ZM275.69-24.91L275.47-24.91L275.47-24.91Q275.04-24.91 274.00-25.06L274.00-25.06L274.00-25.06Q272.95-25.20 272.23-25.20L272.23-25.20L272.23-25.20Q271.22-25.20 270.07-24.91L270.07-24.91L270.07-24.91Q268.27-24.41 264.17-16.38L264.17-16.38L264.17-16.38Q260.06-8.35 260.06-4.39L260.06-4.39L260.06-4.39Q260.06-3.17 260.78-3.17L260.78-3.17L260.78-3.17Q262.30-3.17 266.15-7.56L266.15-7.56L266.15-7.56Q270.00-11.95 271.22-13.82L271.22-13.82L271.22-13.82Q273.02-16.70 274.54-20.05L274.54-20.05L274.54-20.05Q276.05-23.40 276.05-24.48L276.05-24.48L276.05-24.48Q276.05-24.91 275.69-24.91L275.69-24.91ZM297.22 15.41L297.22 15.41L297.22 15.41Q296.57 19.08 290.84 22.14L290.84 22.14L290.84 22.14Q285.12 25.20 280.01 25.20L280.01 25.20L280.01 25.20Q274.75 25.20 274.75 21.38L274.75 21.38L274.75 21.38Q274.75 17.57 278.28 10.69L278.28 10.69L278.28 10.69Q281.81 3.82 284.18 1.15L284.18 1.15L284.18 1.15Q284.40 0.86 285.62 0.43L285.62 0.43L285.62 0.43Q285.26 0.22 284.69-0.11L284.69-0.11L284.69-0.11Q284.11-0.43 283.72-0.61L283.72-0.61L283.72-0.61Q283.32-0.79 283.03-1.08L283.03-1.08L283.03-1.08Q282.74-1.37 282.74-1.66L282.74-1.66L282.74-1.66Q282.74-2.45 283.43-3.13L283.43-3.13L283.43-3.13Q284.11-3.82 284.83-3.82L284.83-3.82L285.12-3.82L285.12-3.82Q289.51-2.16 293.40 3.46L293.40 3.46L293.40 3.46Q297.29 9.07 297.29 13.97L297.29 13.97L297.29 13.97Q297.29 14.98 297.22 15.41ZM302.33-21.17L302.33-21.17L302.33-21.17Q302.33-20.52 301.25-20.52L301.25-20.52L300.60-20.52L300.60-20.52Q300.53-20.09 300.28-18.76L300.28-18.76L300.28-18.76Q300.02-17.42 299.81-16.31L299.81-16.31L299.81-16.31Q299.59-15.19 299.45-14.83L299.45-14.83L299.45-14.83Q297.65-10.22 294.44-7.45L294.44-7.45L294.44-7.45Q291.24-4.68 287.78-4.68L287.78-4.68L287.78-4.68Q285.77-4.68 284.87-5.83L284.87-5.83L284.87-5.83Q283.97-6.98 283.97-9.50L283.97-9.50L283.97-9.50Q283.97-15.70 287.82-21.46L287.82-21.46L287.82-21.46Q291.67-27.22 295.92-27.22L295.92-27.22L295.92-27.22Q296.28-27.22 297.00-27.07L297.00-27.07L297.00-27.07Q297.00-29.66 298.87-29.66L298.87-29.66L298.87-29.66Q300.96-29.66 300.96-26.35L300.96-26.35L300.96-26.35Q300.96-25.85 300.89-24.62L300.89-24.62L300.89-24.62Q300.82-23.40 300.82-22.82L300.82-22.82L300.82-22.82Q300.89-22.82 301.10-22.68L301.10-22.68L301.10-22.68Q301.32-22.54 301.50-22.39L301.50-22.39L301.50-22.39Q301.68-22.25 301.90-22.03L301.90-22.03L301.90-22.03Q302.11-21.82 302.22-21.60L302.22-21.60L302.22-21.60Q302.33-21.38 302.33-21.17ZM293.83 16.34L293.83 16.34L293.83 15.41L293.83 15.41Q293.83 11.59 291.78 7.78L291.78 7.78L291.78 7.78Q289.73 3.96 286.85 1.44L286.85 1.44L286.85 1.44Q286.70 1.66 285.08 3.96L285.08 3.96L285.08 3.96Q283.46 6.26 282.35 7.99L282.35 7.99L282.35 7.99Q281.23 9.72 279.79 12.20L279.79 12.20L279.79 12.20Q278.35 14.69 277.56 16.81L277.56 16.81L277.56 16.81Q276.77 18.94 276.77 20.45L276.77 20.45L276.77 20.45Q276.77 23.40 280.15 23.40L280.15 23.40L280.15 23.40Q283.82 23.40 288.76 20.95L288.76 20.95L288.76 20.95Q293.69 18.50 293.83 16.34ZM297.94-20.81L297.94-20.81L297.94-20.81Q297.14-20.95 297.00-23.08L297.00-23.08L297.00-23.08Q296.86-25.20 295.99-25.20L295.99-25.20L295.99-25.20Q293.76-25.20 291.82-22.32L291.82-22.32L291.82-22.32Q289.87-19.44 288.79-16.63L288.79-16.63L288.79-16.63Q286.99-11.74 286.99-9.00L286.99-9.00L286.99-9.00Q286.99-6.77 288.79-6.77L288.79-6.77L288.79-6.77Q291.46-6.77 294.70-11.05L294.70-11.05L294.70-11.05Q297.94-15.34 297.94-20.81ZM320.04-22.39L320.04-22.39L320.04-22.39Q320.47-20.16 320.47-18.79L320.47-18.79L320.47-18.79Q320.47-17.21 319.39-16.09L319.39-16.09L319.39-16.09Q318.31-14.98 316.58-14.51L316.58-14.51L316.58-14.51Q314.86-14.04 313.49-13.86L313.49-13.86L313.49-13.86Q312.12-13.68 310.90-13.68L310.90-13.68L310.90-13.68Q310.18-13.68 309.28-13.72L309.28-13.72L309.28-13.72Q308.38-13.75 308.30-13.75L308.30-13.75L308.30-13.75Q305.93-7.70 305.93-4.25L305.93-4.25L305.93-4.25Q305.93-1.37 308.09-1.37L308.09-1.37L308.09-1.37Q309.60-1.37 311.62-3.28L311.62-3.28L311.62-3.28Q313.63-5.18 315.14-7.09L315.14-7.09L315.14-7.09Q316.66-9.00 316.94-9.00L316.94-9.00L316.94-9.00Q317.45-9.00 317.45-8.42L317.45-8.42L317.45-8.42Q317.45-6.41 313.49-2.84L313.49-2.84L313.49-2.84Q309.53 0.72 307.30 0.72L307.30 0.72L307.30 0.72Q305.50 0.72 304.02-0.40L304.02-0.40L304.02-0.40Q302.54-1.51 302.54-4.10L302.54-4.10L302.54-4.10Q302.54-4.90 302.76-5.98L302.76-5.98L302.76-5.98Q303.26-8.71 304.09-11.30L304.09-11.30L304.09-11.30Q304.92-13.90 304.99-14.47L304.99-14.47L304.99-14.47Q303.91-14.76 303.91-15.62L303.91-15.62L303.91-15.62Q303.91-16.42 305.14-16.42L305.14-16.42L305.64-16.42L305.64-16.42Q308.52-22.10 308.95-22.97L308.95-22.97L308.95-22.97Q310.97-26.78 316.66-26.78L316.66-26.78L316.66-26.78Q319.10-26.78 320.04-22.39ZM317.45-18.94L317.45-18.94L317.45-18.94Q317.45-20.74 317.09-22.03L317.09-22.03L317.09-22.03Q316.73-23.33 316.26-23.83L316.26-23.83L316.26-23.83Q315.79-24.34 315.29-24.34L315.29-24.34L315.29-24.34Q313.85-24.34 311.87-21.24L311.87-21.24L311.87-21.24Q309.89-18.14 308.95-15.77L308.95-15.77L308.95-15.77Q309.10-15.77 310.10-15.70L310.10-15.70L310.10-15.70Q311.11-15.62 311.83-15.62L311.83-15.62L311.83-15.62Q314.78-15.62 316.08-16.27L316.08-16.27L316.08-16.27Q317.38-16.92 317.45-18.94ZM339.98-24.70L339.98-24.70L339.98-24.70Q339.84-23.26 338.11-20.59L338.11-20.59L338.11-20.59Q336.38-17.93 335.45-17.93L335.45-17.93L335.45-17.93Q335.16-17.93 335.16-18.36L335.16-18.36L335.16-18.36Q335.16-19.01 335.95-20.99L335.95-20.99L335.95-20.99Q336.74-22.97 336.74-23.54L336.74-23.54L336.74-23.54Q336.74-24.62 335.45-24.62L335.45-24.62L335.45-24.62Q335.23-24.62 333.07-24.26L333.07-24.26L333.07-24.26Q331.27-23.83 328.36-21.96L328.36-21.96L328.36-21.96Q325.44-20.09 325.44-17.86L325.44-17.86L325.44-17.86Q325.44-17.06 325.80-16.42L325.80-16.42L325.80-16.42Q326.74-14.54 329.08-13.25L329.08-13.25L329.08-13.25Q331.42-11.95 333.11-10.80L333.11-10.80L333.11-10.80Q334.80-9.65 334.80-7.78L334.80-7.78L334.80-7.78Q334.80-4.61 329.94-1.69L329.94-1.69L329.94-1.69Q325.08 1.22 321.62 1.22L321.62 1.22L321.62 1.22Q321.05 1.22 320.69 0.76L320.69 0.76L320.69 0.76Q320.33 0.29 320.33-0.22L320.33-0.22L320.33-0.22Q320.33-1.08 321.12-1.08L321.12-1.08L321.12-1.08Q323.50-1.08 327.78-2.56L327.78-2.56L327.78-2.56Q332.06-4.03 332.06-5.76L332.06-5.76L332.06-5.76Q332.06-6.77 330.44-8.14L330.44-8.14L330.44-8.14Q328.82-9.50 326.92-10.66L326.92-10.66L326.92-10.66Q325.01-11.81 323.39-13.43L323.39-13.43L323.39-13.43Q321.77-15.05 321.77-16.56L321.77-16.56L321.77-16.56Q321.77-17.78 322.63-18.86L322.63-18.86L322.63-18.86Q323.28-19.66 324.00-20.41L324.00-20.41L324.00-20.41Q324.72-21.17 325.37-21.74L325.37-21.74L325.37-21.74Q326.02-22.32 326.84-22.90L326.84-22.90L326.84-22.90Q327.67-23.47 328.32-23.90L328.32-23.90L328.32-23.90Q328.97-24.34 329.83-24.77L329.83-24.77L329.83-24.77Q330.70-25.20 331.20-25.45L331.20-25.45L331.20-25.45Q331.70-25.70 332.53-26.06L332.53-26.06L332.53-26.06Q333.36-26.42 333.68-26.53L333.68-26.53L333.68-26.53Q334.01-26.64 334.73-26.93L334.73-26.93L334.73-26.93Q335.45-27.22 335.52-27.22L335.52-27.22L335.52-27.22Q336.74-27.58 337.39-27.58L337.39-27.58L337.39-27.58Q339.98-27.58 339.98-24.70ZM410.90-20.45L410.90-20.45L410.90-20.45Q413.42-20.45 413.42-19.80L413.42-19.80L413.42-19.80Q413.42-19.08 410.90-18.65L410.90-18.65L410.90-18.65Q408.38-18.22 406.58-18.22L406.58-18.22L406.58-18.22Q401.54 0.36 399.46 4.82L399.46 4.82L399.46 4.82Q394.13 16.13 387.94 20.95L387.94 20.95L387.94 20.95Q381.74 25.78 375.62 25.78L375.62 25.78L375.62 25.78Q369.22 25.78 365.62 21.31L365.62 21.31L365.62 21.31Q364.25 19.66 364.25 18.14L364.25 18.14L364.25 18.14Q364.32 17.42 364.68 17.35L364.68 17.35L364.68 17.35Q365.26 17.35 366.05 18.43L366.05 18.43L366.05 18.43Q367.27 20.09 368.17 21.02L368.17 21.02L368.17 21.02Q369.07 21.96 370.84 22.90L370.84 22.90L370.84 22.90Q372.60 23.83 374.54 23.83L374.54 23.83L374.54 23.83Q379.66 23.83 384.34 20.30L384.34 20.30L384.34 20.30Q389.02 16.78 392.33 11.30L392.33 11.30L392.33 11.30Q395.64 5.83 397.87 0.25L397.87 0.25L397.87 0.25Q400.10-5.33 401.26-10.44L401.26-10.44L401.26-10.44Q398.23-4.61 389.81-0.65L389.81-0.65L389.81-0.65Q381.38 3.31 372.82 3.31L372.82 3.31L372.82 3.31Q363.74 3.31 358.42-1.91L358.42-1.91L358.42-1.91Q353.09-7.13 353.09-14.83L353.09-14.83L353.09-14.83Q353.09-19.37 354.67-23.62L354.67-23.62L354.67-23.62Q356.26-27.86 359.03-31.28L359.03-31.28L359.03-31.28Q361.80-34.70 365.54-37.55L365.54-37.55L365.54-37.55Q369.29-40.39 373.57-42.30L373.57-42.30L373.57-42.30Q377.86-44.21 382.50-45.29L382.50-45.29L382.50-45.29Q387.14-46.37 391.68-46.37L391.68-46.37L391.68-46.37Q392.69-46.37 393.70-46.30L393.70-46.30L393.70-46.30Q398.88-46.01 402.16-44.71L402.16-44.71L402.16-44.71Q405.43-43.42 406.30-42.05L406.30-42.05L406.30-42.05Q406.73-41.33 406.73-40.75L406.73-40.75L406.73-40.75Q406.73-40.46 406.58-40.14L406.58-40.14L406.58-40.14Q406.44-39.82 406.26-39.64L406.26-39.64L406.26-39.64Q406.08-39.46 405.72-39.10L405.72-39.10L405.72-39.10Q405.36-38.74 405.22-38.52L405.22-38.52L405.22-38.52Q405.00-38.23 404.71-37.76L404.71-37.76L404.71-37.76Q404.42-37.30 404.17-36.86L404.17-36.86L404.17-36.86Q403.92-36.43 403.63-36.04L403.63-36.04L403.63-36.04Q403.34-35.64 403.09-35.39L403.09-35.39L403.09-35.39Q402.84-35.14 402.62-35.14L402.62-35.14L402.62-35.14Q402.48-35.14 402.37-35.21L402.37-35.21L402.37-35.21Q402.26-35.28 402.19-35.42L402.19-35.42L402.19-35.50L402.19-35.50Q402.19-36.00 402.70-37.04L402.70-37.04L402.70-37.04Q403.20-38.09 403.20-38.81L403.20-38.81L403.20-38.81Q403.20-39.89 402.26-41.18L402.26-41.18L402.26-41.18Q400.03-44.28 392.98-44.93L392.98-44.93L392.98-44.93Q392.11-45.00 391.10-45.00L391.10-45.00L391.10-45.00Q389.30-45.00 387.25-44.78L387.25-44.78L387.25-44.78Q385.20-44.57 382.72-43.96L382.72-43.96L382.72-43.96Q380.23-43.34 377.75-42.44L377.75-42.44L377.75-42.44Q375.26-41.54 372.67-40.07L372.67-40.07L372.67-40.07Q370.08-38.59 367.85-36.76L367.85-36.76L367.85-36.76Q365.62-34.92 363.53-32.29L363.53-32.29L363.53-32.29Q361.44-29.66 360.00-26.64L360.00-26.64L360.00-26.64Q357.12-20.59 357.12-14.98L357.12-14.98L357.12-14.98Q357.12-7.92 362.30-3.49L362.30-3.49L362.30-3.49Q367.49 0.94 374.11 0.94L374.11 0.94L374.11 0.94Q384.84 0.94 391.64-3.64L391.64-3.64L391.64-3.64Q398.45-8.21 403.06-17.86L403.06-17.86L403.06-17.86Q396.94-17.50 383.47-17.50L383.47-17.50L383.47-17.50Q382.25-17.50 381.49-18.25L381.49-18.25L381.49-18.25Q380.74-19.01 380.74-19.94L380.74-19.94L380.74-19.94Q380.74-20.88 382.21-21.60L382.21-21.60L382.21-21.60Q383.69-22.32 384.77-22.32L384.77-22.32L384.77-22.32Q384.84-22.32 384.91-22.32L384.91-22.32L384.91-22.32Q385.34-22.32 385.42-22.03L385.42-22.03L385.42-22.03Q385.42-21.96 385.34-21.89L385.34-21.89L385.34-21.89Q384.98-21.46 384.88-21.17L384.88-21.17L384.88-21.17Q384.77-20.88 385.13-20.74L385.13-20.74L385.13-20.74Q385.92-20.74 389.74-20.63L389.74-20.63L389.74-20.63Q393.55-20.52 398.77-20.48L398.77-20.48L398.77-20.48Q403.99-20.45 407.38-20.45L407.38-20.45L407.38-20.45Q409.68-20.45 410.90-20.45ZM436.97-5.76L436.97-5.76L436.97-5.76Q436.90-5.69 436.32-5.15L436.32-5.15L436.32-5.15Q435.74-4.61 435.38-4.32L435.38-4.32L435.38-4.32Q435.02-4.03 434.34-3.42L434.34-3.42L434.34-3.42Q433.66-2.81 433.15-2.45L433.15-2.45L433.15-2.45Q432.65-2.09 431.93-1.58L431.93-1.58L431.93-1.58Q431.21-1.08 430.67-0.83L430.67-0.83L430.67-0.83Q430.13-0.58 429.55-0.36L429.55-0.36L429.55-0.36Q428.98-0.14 428.47-0.14L428.47-0.14L428.47-0.14Q426.96-0.14 426.67-1.94L426.67-1.94L426.67-1.94Q426.67-4.97 429.05-13.10L429.05-13.10L429.05-13.10Q419.40 0.22 415.22 0.22L415.22 0.22L415.22 0.22Q413.50 0.22 413.50-2.38L413.50-2.38L413.50-2.38Q413.50-5.69 415.48-11.34L415.48-11.34L415.48-11.34Q417.46-16.99 420.34-21.56L420.34-21.56L420.34-21.56Q423.22-26.14 425.38-26.14L425.38-26.14L425.59-26.14L426.38-26.71L426.38-26.71Q427.03-27.43 428.40-27.43L428.40-27.43L428.40-27.43Q429.48-27.43 431.42-26.86L431.42-26.86L431.42-26.86Q433.37-26.28 433.58-26.28L433.58-26.28L433.58-26.28Q433.87-26.28 434.34-26.86L434.34-26.86L434.34-26.86Q434.81-27.43 435.46-27.43L435.46-27.43L435.46-27.43Q437.26-27.43 437.26-25.85L437.26-25.85L437.26-25.85Q437.26-25.20 437.00-24.41L437.00-24.41L437.00-24.41Q436.75-23.62 436.28-22.57L436.28-22.57L436.28-22.57Q435.82-21.53 435.74-21.31L435.74-21.31L435.74-21.31Q435.67-21.17 435.06-20.88L435.06-20.88L435.06-20.88Q434.45-20.59 434.38-20.38L434.38-20.38L434.38-20.38Q432.79-15.91 431.57-10.84L431.57-10.84L431.57-10.84Q430.34-5.76 430.34-4.61L430.34-4.61L430.34-4.61Q430.34-2.81 431.35-2.81L431.35-2.81L431.35-2.81Q432.36-2.81 433.84-4.03L433.84-4.03L433.84-4.03Q435.31-5.26 436.39-6.48L436.39-6.48L436.39-6.48Q437.47-7.70 437.54-7.70L437.54-7.70L437.54-7.70Q437.69-7.70 437.69-7.42L437.69-7.42L437.69-7.42Q437.69-6.34 436.97-5.76ZM432.43-24.91L432.22-24.91L432.22-24.91Q431.78-24.91 430.74-25.06L430.74-25.06L430.74-25.06Q429.70-25.20 428.98-25.20L428.98-25.20L428.98-25.20Q427.97-25.20 426.82-24.91L426.82-24.91L426.82-24.91Q425.02-24.41 420.91-16.38L420.91-16.38L420.91-16.38Q416.81-8.35 416.81-4.39L416.81-4.39L416.81-4.39Q416.81-3.17 417.53-3.17L417.53-3.17L417.53-3.17Q419.04-3.17 422.89-7.56L422.89-7.56L422.89-7.56Q426.74-11.95 427.97-13.82L427.97-13.82L427.97-13.82Q429.77-16.70 431.28-20.05L431.28-20.05L431.28-20.05Q432.79-23.40 432.79-24.48L432.79-24.48L432.79-24.48Q432.79-24.91 432.43-24.91L432.43-24.91ZM456.12-44.86L456.12-44.86L456.12-44.86Q452.16-36.65 448.06-25.02L448.06-25.02L448.06-25.02Q443.95-13.39 442.01-4.68L442.01-4.68L442.01-4.68Q441.94-4.46 441.94-4.10L441.94-4.10L441.94-4.10Q441.94-3.24 442.66-3.24L442.66-3.24L442.66-3.24Q443.09-3.24 445.00-4.32L445.00-4.32L445.00-4.32Q446.90-5.40 447.41-5.40L447.41-5.40L447.41-5.40Q447.84-5.40 448.06-5.11L448.06-5.11L448.06-5.11Q448.06-4.25 444.46-1.91L444.46-1.91L444.46-1.91Q440.86 0.43 439.34 0.43L439.34 0.43L439.34 0.43Q437.98 0.43 437.98-0.86L437.98-0.86L437.98-0.86Q437.98-1.58 438.26-2.38L438.26-2.38L438.26-2.38Q440.14-7.49 441.76-12.53L441.76-12.53L441.76-12.53Q443.38-17.57 445.46-24.52L445.46-24.52L445.46-24.52Q447.55-31.46 448.56-34.78L448.56-34.78L448.56-34.78Q448.78-35.42 448.78-36.07L448.78-36.07L448.78-36.07Q448.78-36.36 448.67-36.61L448.67-36.61L448.67-36.61Q448.56-36.86 448.56-37.08L448.56-37.08L448.56-37.08Q448.56-37.30 448.78-37.94L448.78-37.94L448.78-37.94Q450.22-42.48 451.44-43.99L451.44-43.99L451.44-43.99Q452.66-45.50 455.04-45.50L455.04-45.50L455.04-45.50Q456.05-45.50 456.12-44.86ZM469.01-44.86L469.01-44.86L469.01-44.86Q465.05-36.65 460.94-25.02L460.94-25.02L460.94-25.02Q456.84-13.39 454.90-4.68L454.90-4.68L454.90-4.68Q454.82-4.46 454.82-4.10L454.82-4.10L454.82-4.10Q454.82-3.24 455.54-3.24L455.54-3.24L455.54-3.24Q455.98-3.24 457.88-4.32L457.88-4.32L457.88-4.32Q459.79-5.40 460.30-5.40L460.30-5.40L460.30-5.40Q460.73-5.40 460.94-5.11L460.94-5.11L460.94-5.11Q460.94-4.25 457.34-1.91L457.34-1.91L457.34-1.91Q453.74 0.43 452.23 0.43L452.23 0.43L452.23 0.43Q450.86 0.43 450.86-0.86L450.86-0.86L450.86-0.86Q450.86-1.58 451.15-2.38L451.15-2.38L451.15-2.38Q453.02-7.49 454.64-12.53L454.64-12.53L454.64-12.53Q456.26-17.57 458.35-24.52L458.35-24.52L458.35-24.52Q460.44-31.46 461.45-34.78L461.45-34.78L461.45-34.78Q461.66-35.42 461.66-36.07L461.66-36.07L461.66-36.07Q461.66-36.36 461.56-36.61L461.56-36.61L461.56-36.61Q461.45-36.86 461.45-37.08L461.45-37.08L461.45-37.08Q461.45-37.30 461.66-37.94L461.66-37.94L461.66-37.94Q463.10-42.48 464.33-43.99L464.33-43.99L464.33-43.99Q465.55-45.50 467.93-45.50L467.93-45.50L467.93-45.50Q468.94-45.50 469.01-44.86ZM481.46-22.39L481.46-22.39L481.46-22.39Q481.90-20.16 481.90-18.79L481.90-18.79L481.90-18.79Q481.90-17.21 480.82-16.09L480.82-16.09L480.82-16.09Q479.74-14.98 478.01-14.51L478.01-14.51L478.01-14.51Q476.28-14.04 474.91-13.86L474.91-13.86L474.91-13.86Q473.54-13.68 472.32-13.68L472.32-13.68L472.32-13.68Q471.60-13.68 470.70-13.72L470.70-13.72L470.70-13.72Q469.80-13.75 469.73-13.75L469.73-13.75L469.73-13.75Q467.35-7.70 467.35-4.25L467.35-4.25L467.35-4.25Q467.35-1.37 469.51-1.37L469.51-1.37L469.51-1.37Q471.02-1.37 473.04-3.28L473.04-3.28L473.04-3.28Q475.06-5.18 476.57-7.09L476.57-7.09L476.57-7.09Q478.08-9.00 478.37-9.00L478.37-9.00L478.37-9.00Q478.87-9.00 478.87-8.42L478.87-8.42L478.87-8.42Q478.87-6.41 474.91-2.84L474.91-2.84L474.91-2.84Q470.95 0.72 468.72 0.72L468.72 0.72L468.72 0.72Q466.92 0.72 465.44-0.40L465.44-0.40L465.44-0.40Q463.97-1.51 463.97-4.10L463.97-4.10L463.97-4.10Q463.97-4.90 464.18-5.98L464.18-5.98L464.18-5.98Q464.69-8.71 465.52-11.30L465.52-11.30L465.52-11.30Q466.34-13.90 466.42-14.47L466.42-14.47L466.42-14.47Q465.34-14.76 465.34-15.62L465.34-15.62L465.34-15.62Q465.34-16.42 466.56-16.42L466.56-16.42L467.06-16.42L467.06-16.42Q469.94-22.10 470.38-22.97L470.38-22.97L470.38-22.97Q472.39-26.78 478.08-26.78L478.08-26.78L478.08-26.78Q480.53-26.78 481.46-22.39ZM478.87-18.94L478.87-18.94L478.87-18.94Q478.87-20.74 478.51-22.03L478.51-22.03L478.51-22.03Q478.15-23.33 477.68-23.83L477.68-23.83L477.68-23.83Q477.22-24.34 476.71-24.34L476.71-24.34L476.71-24.34Q475.27-24.34 473.29-21.24L473.29-21.24L473.29-21.24Q471.31-18.14 470.38-15.77L470.38-15.77L470.38-15.77Q470.52-15.77 471.53-15.70L471.53-15.70L471.53-15.70Q472.54-15.62 473.26-15.62L473.26-15.62L473.26-15.62Q476.21-15.62 477.50-16.27L477.50-16.27L477.50-16.27Q478.80-16.92 478.87-18.94ZM501.98-21.24L501.98-21.24L501.98-21.24Q501.41-20.45 500.44-19.69L500.44-19.69L500.44-19.69Q499.46-18.94 498.96-18.94L498.96-18.94L498.96-18.94Q498.53-18.94 498.53-19.37L498.53-19.37L498.53-19.37Q498.53-19.66 499.21-21.38L499.21-21.38L499.21-21.38Q499.90-23.11 499.90-23.76L499.90-23.76L499.90-23.76Q499.90-24.26 499.54-24.26L499.54-24.26L499.54-24.26Q497.02-24.26 492.08-16.49L492.08-16.49L492.08-16.49Q487.15-8.71 484.78-1.30L484.78-1.30L484.78-1.30Q484.34-0.72 483.41-0.14L483.41-0.14L483.41-0.14Q482.47 0.43 481.82 0.43L481.82 0.43L481.82 0.43Q481.39 0.43 481.18 0.07L481.18 0.07L481.18 0.07Q481.18-1.87 481.64-3.46L481.64-3.46L481.64-3.46Q482.11-5.04 482.83-5.33L482.83-5.33L482.83-5.33Q484.42-11.30 485.06-14.26L485.06-14.26L485.78-17.28L485.78-17.28Q485.93-17.78 485.93-18.43L485.93-18.43L485.93-18.43Q485.93-18.79 485.78-19.08L485.78-19.08L485.78-19.08Q485.64-19.37 485.64-19.66L485.64-19.66L485.64-19.66Q485.64-20.09 485.78-20.45L485.78-20.45L485.78-20.45Q486.94-24.98 488.12-26.64L488.12-26.64L488.12-26.64Q489.31-28.30 491.62-28.30L491.62-28.30L491.62-28.30Q492.48-28.30 492.62-27.72L492.62-27.72L492.62-27.72Q492.55-27.50 491.58-25.20L491.58-25.20L491.58-25.20Q490.61-22.90 489.78-20.88L489.78-20.88L489.78-20.88Q488.95-18.86 487.94-15.77L487.94-15.77L487.94-15.77Q486.94-12.67 486.36-10.08L486.36-10.08L486.36-10.08Q488.74-14.76 493.70-21.35L493.70-21.35L493.70-21.35Q498.67-27.94 501.91-27.94L501.91-27.94L501.91-27.94Q503.64-27.94 503.64-25.78L503.64-25.78L503.64-25.78Q503.64-23.54 501.98-21.24ZM526.39-27.94L526.39-27.94L526.39-27.94Q526.61-27.58 526.61-27.14L526.61-27.14L526.61-27.14Q526.61-24.26 520.31-15.55L520.31-15.55L520.31-15.55Q514.01-6.84 510.19-2.38L510.19-2.38L510.19-2.52L510.19-2.52Q510.12-2.52 510.01-1.94L510.01-1.94L510.01-1.94Q509.90-1.37 509.69-0.50L509.69-0.50L509.69-0.50Q509.47 0.36 509.26 1.19L509.26 1.19L509.26 1.19Q509.04 2.02 508.72 2.63L508.72 2.63L508.72 2.63Q508.39 3.24 508.10 3.24L508.10 3.24L508.10 3.24Q507.82 3.24 507.35 3.06L507.35 3.06L507.35 3.06Q506.88 2.88 506.81 2.88L506.81 2.88L506.81 2.88Q497.09 15.91 497.09 19.58L497.09 19.58L497.09 19.58Q497.09 20.23 497.38 20.92L497.38 20.92L497.38 20.92Q497.66 21.60 497.66 21.82L497.66 21.82L497.66 21.82Q497.66 22.61 496.80 23.18L496.80 23.18L496.80 23.18Q495.94 23.76 495.07 23.76L495.07 23.76L495.07 23.76Q493.92 23.76 493.92 22.39L493.92 22.39L493.92 22.39Q493.92 19.80 497.02 14.51L497.02 14.51L497.02 14.51Q500.11 9.22 503.39 4.68L503.39 4.68L503.39 4.68Q506.66 0.14 506.74-0.14L506.74-0.14L506.74-0.14Q507.53-2.52 507.53-6.62L507.53-6.62L507.53-6.62Q507.53-12.53 506.41-16.99L506.41-16.99L506.41-16.99Q505.30-21.46 503.35-21.46L503.35-21.46L503.35-21.46Q503.14-21.46 502.78-21.46L502.78-21.46L502.34-21.38L502.34-21.38Q502.06-21.38 502.06-21.74L502.06-21.74L502.06-21.74Q502.06-22.32 503.64-23.47L503.64-23.47L503.64-23.47Q503.86-23.62 504.86-25.06L504.86-25.06L504.86-25.06Q505.87-26.50 506.38-26.50L506.38-26.50L506.38-26.50Q507.89-26.50 509.08-21.85L509.08-21.85L509.08-21.85Q510.26-17.21 510.26-11.52L510.26-11.52L510.26-11.52Q510.26-10.94 510.23-9.79L510.23-9.79L510.23-9.79Q510.19-8.64 510.19-8.06L510.19-8.06L510.19-8.06Q510.19-6.91 510.77-6.91L510.77-6.91L510.77-6.91Q512.42-6.91 517.43-14.54L517.43-14.54L517.43-14.54Q522.43-22.18 522.43-24.26L522.43-24.26L522.43-24.26Q522.43-24.70 522.07-24.70L522.07-24.70L522.07-24.70Q521.93-24.70 521.57-24.55L521.57-24.55L521.57-24.55Q521.21-24.41 520.99-24.41L520.99-24.41L520.99-24.41Q520.63-24.41 520.42-24.77L520.42-24.77L520.42-24.77Q520.42-25.70 522.50-26.86L522.50-26.86L522.50-26.86Q524.59-28.01 525.89-28.01L525.89-28.01L525.89-28.01Q526.25-28.01 526.39-27.94Z" fill="#f7c61d"></path></g></g><style>text {
  font-size: 64px;
  font-family: Arial Black;
  dominant-baseline: central;
  text-anchor: middle;
}</style></svg>